<mxfile host="app.diagrams.net" agent="Mozilla/5.0 (Windows NT 10.0; Win64; x64) AppleWebKit/537.36 (KHTML, like Gecko) Chrome/135.0.0.0 Safari/537.36" version="26.2.14" pages="2">
  <diagram name="aggregate" id="nox40FjqKFgM9x_0fMpl">
    <mxGraphModel dx="786" dy="451" grid="1" gridSize="10" guides="1" tooltips="1" connect="1" arrows="1" fold="1" page="1" pageScale="1" pageWidth="850" pageHeight="1100" math="0" shadow="0">
      <root>
        <mxCell id="0" />
        <mxCell id="1" parent="0" />
        <mxCell id="PHMGT7EbbmgZR2cm7ChH-1" value="Aggregate root" style="ellipse;whiteSpace=wrap;html=1;aspect=fixed;" parent="1" vertex="1">
          <mxGeometry x="310" y="60" width="80" height="80" as="geometry" />
        </mxCell>
        <mxCell id="PHMGT7EbbmgZR2cm7ChH-2" value="entity&lt;div&gt;&lt;br&gt;&lt;/div&gt;" style="ellipse;whiteSpace=wrap;html=1;aspect=fixed;" parent="1" vertex="1">
          <mxGeometry x="140" y="220" width="80" height="80" as="geometry" />
        </mxCell>
        <mxCell id="PHMGT7EbbmgZR2cm7ChH-3" value="entity&lt;div&gt;&lt;br&gt;&lt;/div&gt;" style="ellipse;whiteSpace=wrap;html=1;aspect=fixed;" parent="1" vertex="1">
          <mxGeometry x="450" y="230" width="80" height="80" as="geometry" />
        </mxCell>
        <mxCell id="PHMGT7EbbmgZR2cm7ChH-4" value="entity&lt;div&gt;&lt;br&gt;&lt;/div&gt;" style="ellipse;whiteSpace=wrap;html=1;aspect=fixed;" parent="1" vertex="1">
          <mxGeometry x="50" y="360" width="80" height="80" as="geometry" />
        </mxCell>
        <mxCell id="PHMGT7EbbmgZR2cm7ChH-5" value="entity&lt;div&gt;&lt;br&gt;&lt;/div&gt;" style="ellipse;whiteSpace=wrap;html=1;aspect=fixed;" parent="1" vertex="1">
          <mxGeometry x="190" y="360" width="80" height="80" as="geometry" />
        </mxCell>
        <mxCell id="PHMGT7EbbmgZR2cm7ChH-6" value="entity&lt;div&gt;&lt;br&gt;&lt;/div&gt;" style="ellipse;whiteSpace=wrap;html=1;aspect=fixed;" parent="1" vertex="1">
          <mxGeometry x="340" y="370" width="80" height="80" as="geometry" />
        </mxCell>
        <mxCell id="PHMGT7EbbmgZR2cm7ChH-7" value="" style="endArrow=classic;html=1;rounded=0;" parent="1" target="PHMGT7EbbmgZR2cm7ChH-1" edge="1">
          <mxGeometry width="50" height="50" relative="1" as="geometry">
            <mxPoint x="210" y="230" as="sourcePoint" />
            <mxPoint x="260" y="180" as="targetPoint" />
          </mxGeometry>
        </mxCell>
        <mxCell id="PHMGT7EbbmgZR2cm7ChH-8" value="" style="endArrow=classic;html=1;rounded=0;entryX=1;entryY=1;entryDx=0;entryDy=0;" parent="1" source="PHMGT7EbbmgZR2cm7ChH-3" target="PHMGT7EbbmgZR2cm7ChH-1" edge="1">
          <mxGeometry width="50" height="50" relative="1" as="geometry">
            <mxPoint x="380" y="260" as="sourcePoint" />
            <mxPoint x="430" y="210" as="targetPoint" />
          </mxGeometry>
        </mxCell>
        <mxCell id="PHMGT7EbbmgZR2cm7ChH-9" value="" style="endArrow=classic;html=1;rounded=0;" parent="1" source="PHMGT7EbbmgZR2cm7ChH-4" edge="1">
          <mxGeometry width="50" height="50" relative="1" as="geometry">
            <mxPoint x="380" y="360" as="sourcePoint" />
            <mxPoint x="160" y="300" as="targetPoint" />
          </mxGeometry>
        </mxCell>
        <mxCell id="PHMGT7EbbmgZR2cm7ChH-10" value="" style="endArrow=classic;html=1;rounded=0;exitX=0.75;exitY=0.05;exitDx=0;exitDy=0;exitPerimeter=0;" parent="1" source="PHMGT7EbbmgZR2cm7ChH-5" target="PHMGT7EbbmgZR2cm7ChH-2" edge="1">
          <mxGeometry width="50" height="50" relative="1" as="geometry">
            <mxPoint x="380" y="360" as="sourcePoint" />
            <mxPoint x="430" y="310" as="targetPoint" />
          </mxGeometry>
        </mxCell>
        <mxCell id="PHMGT7EbbmgZR2cm7ChH-11" value="" style="endArrow=classic;html=1;rounded=0;exitX=0.5;exitY=0;exitDx=0;exitDy=0;entryX=0.95;entryY=0.667;entryDx=0;entryDy=0;entryPerimeter=0;" parent="1" source="PHMGT7EbbmgZR2cm7ChH-6" target="PHMGT7EbbmgZR2cm7ChH-2" edge="1">
          <mxGeometry width="50" height="50" relative="1" as="geometry">
            <mxPoint x="380" y="360" as="sourcePoint" />
            <mxPoint x="430" y="310" as="targetPoint" />
          </mxGeometry>
        </mxCell>
        <mxCell id="PHMGT7EbbmgZR2cm7ChH-12" value="entity&lt;div&gt;&lt;br&gt;&lt;/div&gt;" style="ellipse;whiteSpace=wrap;html=1;aspect=fixed;" parent="1" vertex="1">
          <mxGeometry x="510" y="370" width="80" height="80" as="geometry" />
        </mxCell>
        <mxCell id="PHMGT7EbbmgZR2cm7ChH-13" value="" style="endArrow=classic;html=1;rounded=0;exitX=0.308;exitY=0.05;exitDx=0;exitDy=0;exitPerimeter=0;" parent="1" source="PHMGT7EbbmgZR2cm7ChH-12" edge="1">
          <mxGeometry width="50" height="50" relative="1" as="geometry">
            <mxPoint x="533" y="370" as="sourcePoint" />
            <mxPoint x="510" y="310" as="targetPoint" />
          </mxGeometry>
        </mxCell>
        <mxCell id="021z9GwJ8ROM9TzwN56a-1" value="" style="endArrow=none;html=1;rounded=0;" edge="1" parent="1">
          <mxGeometry width="50" height="50" relative="1" as="geometry">
            <mxPoint x="20" y="470" as="sourcePoint" />
            <mxPoint x="20" y="30" as="targetPoint" />
          </mxGeometry>
        </mxCell>
        <mxCell id="021z9GwJ8ROM9TzwN56a-2" value="" style="endArrow=none;html=1;rounded=0;" edge="1" parent="1">
          <mxGeometry width="50" height="50" relative="1" as="geometry">
            <mxPoint x="20" y="30" as="sourcePoint" />
            <mxPoint x="440" y="30" as="targetPoint" />
          </mxGeometry>
        </mxCell>
        <mxCell id="021z9GwJ8ROM9TzwN56a-3" value="" style="endArrow=none;html=1;rounded=0;" edge="1" parent="1">
          <mxGeometry width="50" height="50" relative="1" as="geometry">
            <mxPoint x="20" y="470" as="sourcePoint" />
            <mxPoint x="440" y="470" as="targetPoint" />
          </mxGeometry>
        </mxCell>
        <mxCell id="021z9GwJ8ROM9TzwN56a-5" value="Aggregate" style="text;html=1;align=center;verticalAlign=middle;whiteSpace=wrap;rounded=0;fontStyle=1" vertex="1" parent="1">
          <mxGeometry x="20" width="120" height="30" as="geometry" />
        </mxCell>
      </root>
    </mxGraphModel>
  </diagram>
  <diagram id="rzIQw83shuhI_lZZiy7_" name="Clean Architecture">
    <mxGraphModel dx="786" dy="451" grid="1" gridSize="10" guides="1" tooltips="1" connect="1" arrows="1" fold="1" page="1" pageScale="1" pageWidth="850" pageHeight="1100" math="0" shadow="0">
      <root>
        <mxCell id="0" />
        <mxCell id="1" parent="0" />
        <mxCell id="ACjtFOA3Blbzyf5FOqQK-1" value="" style="shape=folder;fontStyle=1;tabWidth=80;tabHeight=30;tabPosition=left;html=1;boundedLbl=1;whiteSpace=wrap;" vertex="1" parent="1">
          <mxGeometry x="60" y="380" width="590" height="470" as="geometry" />
        </mxCell>
        <mxCell id="ACjtFOA3Blbzyf5FOqQK-2" value="«interface»&lt;br&gt;&lt;b&gt;IEntity&lt;/b&gt;" style="html=1;whiteSpace=wrap;" vertex="1" parent="1">
          <mxGeometry x="100" y="450" width="110" height="50" as="geometry" />
        </mxCell>
        <mxCell id="ACjtFOA3Blbzyf5FOqQK-3" value="Book" style="swimlane;fontStyle=1;align=center;verticalAlign=top;childLayout=stackLayout;horizontal=1;startSize=26;horizontalStack=0;resizeParent=1;resizeParentMax=0;resizeLast=0;collapsible=1;marginBottom=0;whiteSpace=wrap;html=1;" vertex="1" parent="1">
          <mxGeometry x="100" y="560" width="160" height="86" as="geometry" />
        </mxCell>
        <mxCell id="ACjtFOA3Blbzyf5FOqQK-4" value="+ field: type" style="text;strokeColor=none;fillColor=none;align=left;verticalAlign=top;spacingLeft=4;spacingRight=4;overflow=hidden;rotatable=0;points=[[0,0.5],[1,0.5]];portConstraint=eastwest;whiteSpace=wrap;html=1;" vertex="1" parent="ACjtFOA3Blbzyf5FOqQK-3">
          <mxGeometry y="26" width="160" height="26" as="geometry" />
        </mxCell>
        <mxCell id="ACjtFOA3Blbzyf5FOqQK-5" value="" style="line;strokeWidth=1;fillColor=none;align=left;verticalAlign=middle;spacingTop=-1;spacingLeft=3;spacingRight=3;rotatable=0;labelPosition=right;points=[];portConstraint=eastwest;strokeColor=inherit;" vertex="1" parent="ACjtFOA3Blbzyf5FOqQK-3">
          <mxGeometry y="52" width="160" height="8" as="geometry" />
        </mxCell>
        <mxCell id="ACjtFOA3Blbzyf5FOqQK-6" value="+ method(type): type" style="text;strokeColor=none;fillColor=none;align=left;verticalAlign=top;spacingLeft=4;spacingRight=4;overflow=hidden;rotatable=0;points=[[0,0.5],[1,0.5]];portConstraint=eastwest;whiteSpace=wrap;html=1;" vertex="1" parent="ACjtFOA3Blbzyf5FOqQK-3">
          <mxGeometry y="60" width="160" height="26" as="geometry" />
        </mxCell>
        <mxCell id="ACjtFOA3Blbzyf5FOqQK-11" value="" style="shape=folder;fontStyle=1;tabWidth=110;tabHeight=30;tabPosition=left;html=1;boundedLbl=1;labelInHeader=1;container=1;collapsible=0;whiteSpace=wrap;" vertex="1" parent="1">
          <mxGeometry x="690" y="380" width="590" height="470" as="geometry" />
        </mxCell>
        <mxCell id="ACjtFOA3Blbzyf5FOqQK-12" value="Text" style="html=1;strokeColor=none;resizeWidth=1;resizeHeight=1;fillColor=none;part=1;connectable=0;allowArrows=0;deletable=0;whiteSpace=wrap;" vertex="1" parent="ACjtFOA3Blbzyf5FOqQK-11">
          <mxGeometry width="2556.6666666666665" height="1880" relative="1" as="geometry">
            <mxPoint y="30" as="offset" />
          </mxGeometry>
        </mxCell>
        <mxCell id="ACjtFOA3Blbzyf5FOqQK-20" value="ApplicationDbContext" style="swimlane;fontStyle=1;align=center;verticalAlign=top;childLayout=stackLayout;horizontal=1;startSize=26;horizontalStack=0;resizeParent=1;resizeParentMax=0;resizeLast=0;collapsible=1;marginBottom=0;whiteSpace=wrap;html=1;" vertex="1" parent="ACjtFOA3Blbzyf5FOqQK-11">
          <mxGeometry x="310" y="122.99666666666666" width="160" height="93.14285714285714" as="geometry" />
        </mxCell>
        <mxCell id="ACjtFOA3Blbzyf5FOqQK-21" value="+ field: type" style="text;strokeColor=none;fillColor=none;align=left;verticalAlign=top;spacingLeft=4;spacingRight=4;overflow=hidden;rotatable=0;points=[[0,0.5],[1,0.5]];portConstraint=eastwest;whiteSpace=wrap;html=1;" vertex="1" parent="ACjtFOA3Blbzyf5FOqQK-20">
          <mxGeometry y="26" width="160" height="29.095238095238095" as="geometry" />
        </mxCell>
        <mxCell id="ACjtFOA3Blbzyf5FOqQK-22" value="" style="line;strokeWidth=1;fillColor=none;align=left;verticalAlign=middle;spacingTop=-1;spacingLeft=3;spacingRight=3;rotatable=0;labelPosition=right;points=[];portConstraint=eastwest;strokeColor=inherit;" vertex="1" parent="ACjtFOA3Blbzyf5FOqQK-20">
          <mxGeometry y="55.095238095238095" width="160" height="8.952380952380953" as="geometry" />
        </mxCell>
        <mxCell id="ACjtFOA3Blbzyf5FOqQK-23" value="+ method(type): type" style="text;strokeColor=none;fillColor=none;align=left;verticalAlign=top;spacingLeft=4;spacingRight=4;overflow=hidden;rotatable=0;points=[[0,0.5],[1,0.5]];portConstraint=eastwest;whiteSpace=wrap;html=1;" vertex="1" parent="ACjtFOA3Blbzyf5FOqQK-20">
          <mxGeometry y="64.04761904761905" width="160" height="29.095238095238095" as="geometry" />
        </mxCell>
        <mxCell id="ACjtFOA3Blbzyf5FOqQK-24" value="Domain" style="text;html=1;align=center;verticalAlign=middle;whiteSpace=wrap;rounded=0;" vertex="1" parent="1">
          <mxGeometry x="350" y="382" width="60" height="30" as="geometry" />
        </mxCell>
        <mxCell id="ACjtFOA3Blbzyf5FOqQK-25" value="Infreastructure" style="text;html=1;align=center;verticalAlign=middle;whiteSpace=wrap;rounded=0;" vertex="1" parent="1">
          <mxGeometry x="960" y="384" width="90" height="30" as="geometry" />
        </mxCell>
        <mxCell id="ACjtFOA3Blbzyf5FOqQK-29" value="" style="endArrow=block;dashed=1;endFill=0;endSize=12;html=1;rounded=0;exitX=0.413;exitY=0;exitDx=0;exitDy=0;exitPerimeter=0;" edge="1" parent="1">
          <mxGeometry width="160" relative="1" as="geometry">
            <mxPoint x="153.05999999999992" y="556" as="sourcePoint" />
            <mxPoint x="153" y="500" as="targetPoint" />
          </mxGeometry>
        </mxCell>
        <mxCell id="ACjtFOA3Blbzyf5FOqQK-30" value="«interface»&lt;br&gt;&lt;b&gt;IRepository&lt;/b&gt;" style="html=1;whiteSpace=wrap;" vertex="1" parent="1">
          <mxGeometry x="350" y="450" width="110" height="50" as="geometry" />
        </mxCell>
      </root>
    </mxGraphModel>
  </diagram>
</mxfile>
